<svg width="21" height="21" viewBox="0 0 20 20" xmlns="http://www.w3.org/2000/svg"><path d="M18.537 0H1.477C.663 0 0 .646 0 1.442v17.133c0 .799.662 1.445 1.478 1.445h17.06c.816 0 1.482-.648 1.482-1.445V1.442C20.019.646 19.354 0 18.537 0zM5.35 17.061H2.38V7.506h2.971v9.555H5.35zM3.865 6.2a1.72 1.72 0 1 1-.001-3.441A1.72 1.72 0 0 1 3.865 6.2zM16.47 17.061h-2.965v-4.646c0-1.11-.022-2.534-1.544-2.534-1.545 0-1.78 1.207-1.78 2.454v4.726H7.213V7.506h2.848v1.305h.04c.398-.752 1.367-1.543 2.81-1.543 3.004 0 3.56 1.978 3.56 4.552v5.241h-.001z" style="fill:var(--color-ui,000)" fill-rule="evenodd"/></svg>